<svg width="16" height="16" viewBox="0 0 16 16" fill="none" xmlns="http://www.w3.org/2000/svg">
<path d="M1.59998 8.7999C1.59998 8.58773 1.68426 8.38425 1.83429 8.23422C1.98432 8.08419 2.1878 7.9999 2.39998 7.9999H3.99998C4.21215 7.9999 4.41563 8.08419 4.56566 8.23422C4.71569 8.38425 4.79998 8.58773 4.79998 8.7999V12.7999C4.79998 13.0121 4.71569 13.2156 4.56566 13.3656C4.41563 13.5156 4.21215 13.5999 3.99998 13.5999H2.39998C2.1878 13.5999 1.98432 13.5156 1.83429 13.3656C1.68426 13.2156 1.59998 13.0121 1.59998 12.7999V8.7999ZM6.39998 5.5999C6.39998 5.38773 6.48426 5.18425 6.63429 5.03422C6.78432 4.88419 6.9878 4.7999 7.19998 4.7999H8.79998C9.01215 4.7999 9.21563 4.88419 9.36566 5.03422C9.51569 5.18425 9.59998 5.38773 9.59998 5.5999V12.7999C9.59998 13.0121 9.51569 13.2156 9.36566 13.3656C9.21563 13.5156 9.01215 13.5999 8.79998 13.5999H7.19998C6.9878 13.5999 6.78432 13.5156 6.63429 13.3656C6.48426 13.2156 6.39998 13.0121 6.39998 12.7999V5.5999ZM11.2 3.1999C11.2 2.98773 11.2843 2.78425 11.4343 2.63422C11.5843 2.48419 11.7878 2.3999 12 2.3999H13.6C13.8121 2.3999 14.0156 2.48419 14.1657 2.63422C14.3157 2.78425 14.4 2.98773 14.4 3.1999V12.7999C14.4 13.0121 14.3157 13.2156 14.1657 13.3656C14.0156 13.5156 13.8121 13.5999 13.6 13.5999H12C11.7878 13.5999 11.5843 13.5156 11.4343 13.3656C11.2843 13.2156 11.2 13.0121 11.2 12.7999V3.1999Z" fill="white"/>
</svg>
