<svg width="32" height="32" viewBox="0 0 32 32" fill="none" xmlns="http://www.w3.org/2000/svg">
<path d="M20 29.3333H12C5.33329 29.3333 2.66663 26.6666 2.66663 20V12C2.66663 5.33329 5.33329 2.66663 12 2.66663H20C26.6666 2.66663 29.3333 5.33329 29.3333 12V20C29.3333 26.6666 26.6666 29.3333 20 29.3333Z" fill="white"/>
<path d="M11.5625 19.1065C11.5625 20.8265 12.8825 22.2132 14.5225 22.2132H17.8692C19.2958 22.2132 20.4558 20.9998 20.4558 19.5065C20.4558 17.8798 19.7492 17.3065 18.6958 16.9332L13.3225 15.0665C12.2692 14.6932 11.5625 14.1198 11.5625 12.4932C11.5625 10.9998 12.7225 9.7865 14.1492 9.7865H17.4958C19.1358 9.7865 20.4558 11.1732 20.4558 12.8932" stroke="#7065F0" stroke-width="2" stroke-linecap="round" stroke-linejoin="round"/>
<path d="M16 8V24" stroke="#7065F0" stroke-width="2" stroke-linecap="round" stroke-linejoin="round"/>
</svg>
