<svg width="32" height="32" viewBox="0 0 32 32" fill="none" xmlns="http://www.w3.org/2000/svg">
<path d="M6.66669 10.6666C4.45335 10.6666 2.66669 12.4533 2.66669 14.6666V25.3333C2.66669 27.5466 4.45335 29.3333 6.66669 29.3333H8.66669C10.1334 29.3333 11.3334 28.1333 11.3334 26.6666V13.3333C11.3334 11.8666 10.1334 10.6666 8.66669 10.6666H6.66669ZM8.00002 22.6666C8.00002 23.2133 7.54669 23.6666 7.00002 23.6666C6.45335 23.6666 6.00002 23.2133 6.00002 22.6666V17.3333C6.00002 16.7866 6.45335 16.3333 7.00002 16.3333C7.54669 16.3333 8.00002 16.7866 8.00002 17.3333V22.6666Z" fill="white"/>
<path d="M25.3333 2.66663H17.3333C15.12 2.66663 13.3333 4.45329 13.3333 6.66663V25.3333C13.3333 27.5466 15.12 29.3333 17.3333 29.3333H18C18.3733 29.3333 18.6666 29.04 18.6666 28.6666V24C18.6666 23.2666 19.2666 22.6666 20 22.6666H22.6666C23.4 22.6666 24 23.2666 24 24V28.6666C24 29.04 24.2933 29.3333 24.6666 29.3333H25.3333C27.5466 29.3333 29.3333 27.5466 29.3333 25.3333V6.66663C29.3333 4.45329 27.5466 2.66663 25.3333 2.66663ZM19.6666 17.3333C19.6666 17.88 19.2133 18.3333 18.6666 18.3333C18.12 18.3333 17.6666 17.88 17.6666 17.3333V10.6666C17.6666 10.12 18.12 9.66663 18.6666 9.66663C19.2133 9.66663 19.6666 10.12 19.6666 10.6666V17.3333ZM25 17.3333C25 17.88 24.5466 18.3333 24 18.3333C23.4533 18.3333 23 17.88 23 17.3333V10.6666C23 10.12 23.4533 9.66663 24 9.66663C24.5466 9.66663 25 10.12 25 10.6666V17.3333Z" fill="white"/>
</svg>
