<svg width="32" height="32" viewBox="0 0 32 32" fill="none" xmlns="http://www.w3.org/2000/svg">
<g clip-path="url(#clip0_2705_393)">
<path d="M27.6167 10.5094L18.7284 3.60241C17.9483 2.99615 16.9883 2.66699 16 2.66699C15.0118 2.66699 14.0517 2.99615 13.2717 3.60241L4.38169 10.5094C3.84743 10.9245 3.41518 11.456 3.11795 12.0635C2.82072 12.671 2.66637 13.3383 2.66669 14.0145V26.0034C2.66669 26.8866 3.01788 27.7337 3.643 28.3583C4.26812 28.9828 5.11597 29.3337 6.00002 29.3337H26C26.8841 29.3337 27.7319 28.9828 28.357 28.3583C28.9822 27.7337 29.3334 26.8866 29.3334 26.0034V14.0145C29.3334 12.6441 28.7 11.3503 27.6167 10.5094Z" fill="white" stroke="white" stroke-width="2" stroke-linecap="round" stroke-linejoin="round"/>
</g>
<path d="M11 21L21 11" stroke="#7065F0" stroke-width="2" stroke-linecap="round" stroke-linejoin="round"/>
<path d="M11.8333 12.6667C12.2936 12.6667 12.6667 12.2936 12.6667 11.8333C12.6667 11.3731 12.2936 11 11.8333 11C11.3731 11 11 11.3731 11 11.8333C11 12.2936 11.3731 12.6667 11.8333 12.6667Z" fill="#7065F0" stroke="#7065F0" stroke-width="2" stroke-linecap="round" stroke-linejoin="round"/>
<path d="M20.1663 20.9997C20.6266 20.9997 20.9997 20.6266 20.9997 20.1663C20.9997 19.7061 20.6266 19.333 20.1663 19.333C19.7061 19.333 19.333 19.7061 19.333 20.1663C19.333 20.6266 19.7061 20.9997 20.1663 20.9997Z" fill="#7065F0" stroke="#7065F0" stroke-width="2" stroke-linecap="round" stroke-linejoin="round"/>
<defs>
<clipPath id="clip0_2705_393">
<rect width="32" height="32" fill="white"/>
</clipPath>
</defs>
</svg>
