<svg width="249" height="388" viewBox="0 0 249 388" fill="none" xmlns="http://www.w3.org/2000/svg">
<circle cx="28" cy="28" r="27.5" fill="#7570FF" fill-opacity="0.4" stroke="#7065F0"/>
<path d="M33.3998 27.3001C33.3998 30.2825 30.9822 32.7002 27.9998 32.7002C25.0175 32.7002 22.5999 30.2825 22.5999 27.3001C22.5999 24.3178 25.0175 21.9001 27.9998 21.9001C30.9822 21.9001 33.3998 24.3178 33.3998 27.3001Z" fill="white" stroke="#7065F0" stroke-width="6"/>
<path d="M29 48L24.7246 84.7687C24.2991 88.4275 26.4269 91.9039 29.8787 93.1896L239.925 171.424C243.234 172.656 245.344 175.913 245.116 179.437L238.665 279.213C238.328 284.426 233.167 287.923 228.2 286.303L126.274 253.047C122.631 251.858 118.657 253.42 116.797 256.77L62 355.5" stroke="url(#paint0_linear_2630_394)" stroke-width="6"/>
<circle cx="62" cy="380" r="8" fill="#CECBF6"/>
<circle cx="62" cy="331" r="28" fill="#7065F0"/>
<g clip-path="url(#clip0_2630_394)">
<path d="M68.9999 327.71L63.6669 323.562C63.1989 323.198 62.6229 323 62.0299 323C61.437 323 60.8609 323.198 60.3929 323.562L55.0589 327.71C54.7384 327.959 54.479 328.278 54.3007 328.643C54.1223 329.008 54.0297 329.409 54.0299 329.815V337.015C54.0299 337.545 54.2406 338.054 54.6157 338.429C54.9908 338.804 55.4995 339.015 56.0299 339.015H68.0299C68.5603 339.015 69.0691 338.804 69.4441 338.429C69.8192 338.054 70.0299 337.545 70.0299 337.015V329.815C70.0299 328.992 69.6499 328.215 68.9999 327.71Z" fill="white" stroke="white" stroke-width="3" stroke-linecap="round" stroke-linejoin="round"/>
<path d="M66 334C63.79 335.333 60.208 335.333 58 334" stroke="#7065F0" stroke-width="3" stroke-linecap="round" stroke-linejoin="round"/>
</g>
<path d="M63.732 364C62.9622 365.333 61.0377 365.333 60.2679 364L56.8038 358C56.034 356.667 56.9963 355 58.5359 355L65.4641 355C67.0037 355 67.966 356.667 67.1962 358L63.732 364Z" fill="#7065F0"/>
<defs>
<linearGradient id="paint0_linear_2630_394" x1="70.5" y1="378.5" x2="26.5" y2="48" gradientUnits="userSpaceOnUse">
<stop stop-color="#100A55"/>
<stop offset="1" stop-color="#100A55" stop-opacity="0"/>
</linearGradient>
<clipPath id="clip0_2630_394">
<rect width="24" height="24" fill="white" transform="translate(50 319)"/>
</clipPath>
</defs>
</svg>
