<svg width="14" height="14" viewBox="0 0 14 14" fill="none" xmlns="http://www.w3.org/2000/svg">
<path fill-rule="evenodd" clip-rule="evenodd" d="M2.99998 0.599976C3.21215 0.599976 3.41563 0.684261 3.56566 0.83429C3.71569 0.984319 3.79998 1.1878 3.79998 1.39998V2.19998H4.59998C4.81215 2.19998 5.01563 2.28426 5.16566 2.43429C5.31569 2.58432 5.39998 2.7878 5.39998 2.99998C5.39998 3.21215 5.31569 3.41563 5.16566 3.56566C5.01563 3.71569 4.81215 3.79998 4.59998 3.79998H3.79998V4.59998C3.79998 4.81215 3.71569 5.01563 3.56566 5.16566C3.41563 5.31569 3.21215 5.39998 2.99998 5.39998C2.7878 5.39998 2.58432 5.31569 2.43429 5.16566C2.28426 5.01563 2.19998 4.81215 2.19998 4.59998V3.79998H1.39998C1.1878 3.79998 0.984319 3.71569 0.83429 3.56566C0.684261 3.41563 0.599976 3.21215 0.599976 2.99998C0.599976 2.7878 0.684261 2.58432 0.83429 2.43429C0.984319 2.28426 1.1878 2.19998 1.39998 2.19998H2.19998V1.39998C2.19998 1.1878 2.28426 0.984319 2.43429 0.83429C2.58432 0.684261 2.7878 0.599976 2.99998 0.599976ZM2.99998 8.59998C3.21215 8.59998 3.41563 8.68426 3.56566 8.83429C3.71569 8.98432 3.79998 9.1878 3.79998 9.39998V10.2H4.59998C4.81215 10.2 5.01563 10.2843 5.16566 10.4343C5.31569 10.5843 5.39998 10.7878 5.39998 11C5.39998 11.2121 5.31569 11.4156 5.16566 11.5657C5.01563 11.7157 4.81215 11.8 4.59998 11.8H3.79998V12.6C3.79998 12.8121 3.71569 13.0156 3.56566 13.1657C3.41563 13.3157 3.21215 13.4 2.99998 13.4C2.7878 13.4 2.58432 13.3157 2.43429 13.1657C2.28426 13.0156 2.19998 12.8121 2.19998 12.6V11.8H1.39998C1.1878 11.8 0.984319 11.7157 0.83429 11.5657C0.684261 11.4156 0.599976 11.2121 0.599976 11C0.599976 10.7878 0.684261 10.5843 0.83429 10.4343C0.984319 10.2843 1.1878 10.2 1.39998 10.2H2.19998V9.39998C2.19998 9.1878 2.28426 8.98432 2.43429 8.83429C2.58432 8.68426 2.7878 8.59998 2.99998 8.59998ZM8.59998 0.599976C8.77653 0.599919 8.94814 0.658266 9.08807 0.765925C9.22799 0.873584 9.32838 1.02451 9.37358 1.19518L10.3168 4.75998L13 6.30718C13.1216 6.37739 13.2226 6.47838 13.2928 6.59999C13.363 6.7216 13.3999 6.85955 13.3999 6.99998C13.3999 7.1404 13.363 7.27835 13.2928 7.39996C13.2226 7.52157 13.1216 7.62256 13 7.69278L10.3168 9.24077L9.37278 12.8048C9.3275 12.9753 9.22713 13.126 9.08729 13.2336C8.94745 13.3411 8.77599 13.3994 8.59958 13.3994C8.42316 13.3994 8.2517 13.3411 8.11186 13.2336C7.97202 13.126 7.87165 12.9753 7.82638 12.8048L6.88318 9.23998L4.19998 7.69278C4.07837 7.62256 3.97739 7.52157 3.90718 7.39996C3.83697 7.27835 3.80001 7.1404 3.80001 6.99998C3.80001 6.85955 3.83697 6.7216 3.90718 6.59999C3.97739 6.47838 4.07837 6.37739 4.19998 6.30718L6.88318 4.75918L7.82718 1.19518C7.87234 1.02464 7.9726 0.873815 8.11237 0.766169C8.25213 0.658523 8.42356 0.600095 8.59998 0.599976V0.599976Z" fill="white"/>
</svg>
