<svg version="1.1" id="Layer_1" xmlns="http://www.w3.org/2000/svg" xmlns:xlink="http://www.w3.org/1999/xlink" x="0px" y="0px"
	 width="100%" viewBox="0 0 2000 2000" enable-background="new 0 0 2000 2000" xml:space="preserve">
<path fill="none" opacity="1.000000" stroke="none" 
	d="
M1159.000000,2001.000000 
	C772.666687,2001.000000 386.833344,2001.000000 1.000000,2001.000000 
	C1.000000,1334.333374 1.000000,667.666687 1.000000,1.000000 
	C667.666687,1.000000 1334.333374,1.000000 2001.000000,1.000000 
	C2001.000000,667.666687 2001.000000,1334.333374 2001.000000,2001.000000 
	C1720.500000,2001.000000 1440.000000,2001.000000 1159.000000,2001.000000 
M509.500000,1081.339600 
	C464.668579,1081.339478 419.837128,1081.365601 375.005981,1081.252930 
	C373.013306,1081.247925 369.627319,1080.332520 369.344513,1079.218262 
	C368.862823,1077.320312 369.769714,1074.494385 371.066895,1072.806763 
	C389.541656,1048.770996 408.232819,1024.901611 426.714050,1000.870605 
	C429.089355,997.782043 431.565552,996.623596 435.461975,996.629639 
	C509.789398,996.744629 584.117065,996.714539 658.444641,996.714539 
	C756.607666,996.714478 854.770630,996.714539 952.933655,996.714539 
	C960.202820,996.714539 967.471985,996.714539 974.992554,996.714539 
	C974.992554,976.973145 974.992554,958.244873 974.992554,938.868164 
	C808.395935,938.868164 642.091675,938.868164 475.118958,938.868164 
	C476.752808,936.675293 477.812378,935.200439 478.925385,933.767090 
	C499.868591,906.796448 520.852966,879.857605 541.687683,852.803528 
	C543.069885,851.008667 543.974609,848.351562 543.998657,846.083801 
	C544.185791,828.419800 544.111084,810.752930 544.086243,793.086914 
	C544.084229,791.664856 543.850525,790.242981 543.707520,788.630249 
	C460.710114,788.630249 378.125610,788.630249 295.421112,788.630249 
	C295.421112,808.125000 295.421112,827.326660 295.421112,846.865845 
	C297.786774,846.865845 299.764801,846.865845 301.742859,846.865845 
	C353.907562,846.865906 406.072327,846.847717 458.236847,846.950317 
	C459.874634,846.953552 462.524170,847.853638 462.904694,848.955994 
	C463.452240,850.542236 462.935516,853.150330 461.862549,854.544617 
	C441.138733,881.473938 420.225525,908.257385 399.488983,935.176941 
	C397.352020,937.950989 395.232483,939.105713 391.659851,939.089172 
	C358.995148,938.937500 326.329376,939.000000 293.663940,939.000000 
	C291.877869,939.000000 290.091797,939.000000 288.060547,939.000000 
	C287.948822,940.989075 287.797455,942.445679 287.795868,943.902344 
	C287.778778,959.735107 287.913422,975.569580 287.697418,991.399353 
	C287.641510,995.495972 288.753052,996.857056 292.980560,996.804932 
	C310.477234,996.589172 327.978119,996.714478 345.477478,996.714539 
	C347.168732,996.714539 348.859985,996.714600 351.312256,996.714600 
	C349.869690,998.780579 349.164825,999.891296 348.361603,1000.925598 
	C329.460449,1025.264404 310.594604,1049.630981 291.583405,1073.883545 
	C289.087982,1077.067139 287.904022,1080.185913 287.958649,1084.296509 
	C288.180176,1100.959595 288.050720,1117.627441 288.050720,1134.293457 
	C288.050720,1136.043335 288.050690,1137.793213 288.050690,1139.503540 
	C374.417786,1139.503540 459.988037,1139.503540 545.654114,1139.503540 
	C545.654114,1120.056885 545.654114,1100.973633 545.654114,1081.340088 
	C533.750916,1081.340088 522.125427,1081.340088 509.500000,1081.339600 
M1678.829712,861.688477 
	C1659.762085,824.835022 1629.944092,801.234192 1590.081787,790.396118 
	C1558.184204,781.723572 1525.892090,781.119202 1493.644287,788.094177 
	C1442.399536,799.178101 1407.074219,829.455383 1387.582031,878.055908 
	C1378.182861,901.490967 1374.575928,926.081360 1373.601440,951.213806 
	C1372.425049,981.552185 1374.503418,1011.498718 1384.089966,1040.471069 
	C1399.862793,1088.139038 1430.549438,1121.345459 1479.268188,1136.345093 
	C1512.425049,1146.553589 1546.099365,1147.401978 1579.949585,1140.378296 
	C1606.718140,1134.824097 1630.831665,1123.640503 1650.662720,1104.439453 
	C1674.524292,1081.335815 1688.279175,1052.750488 1695.005005,1020.543640 
	C1700.874390,992.438782 1701.469604,964.056763 1699.054077,935.554138 
	C1696.884399,909.951721 1690.969849,885.347168 1678.829712,861.688477 
M1070.176025,1043.500000 
	C1070.176025,1075.439941 1070.176025,1107.379761 1070.176025,1139.515625 
	C1093.656250,1139.515625 1116.533203,1139.515625 1140.078613,1139.515625 
	C1140.078613,1095.807129 1140.078613,1052.444458 1140.078613,1008.864868 
	C1161.737671,1008.864868 1182.727417,1008.870056 1203.717285,1008.863098 
	C1218.248657,1008.858215 1232.655640,1007.630432 1246.734863,1003.866699 
	C1279.188599,995.190857 1303.429688,976.764343 1316.429932,944.986816 
	C1325.487061,922.847717 1326.081909,899.706604 1322.769775,876.690491 
	C1317.824219,842.322083 1299.878052,816.478821 1268.106812,801.120728 
	C1246.745361,790.794861 1223.843994,788.367676 1200.523560,788.348694 
	C1159.198364,788.315186 1117.872803,788.404724 1076.548218,788.250854 
	C1071.751709,788.232971 1070.028442,789.220032 1070.040894,794.549072 
	C1070.234253,877.199036 1070.176270,959.849609 1070.176025,1043.500000 
M754.500000,848.713867 
	C828.906860,848.713867 903.313721,848.713867 977.597168,848.713867 
	C977.597168,829.001221 977.597168,810.103394 977.597168,791.284790 
	C868.604797,791.284790 760.015564,791.284790 651.296143,791.284790 
	C651.296143,810.458984 651.296143,829.346863 651.296143,848.713440 
	C685.580994,848.713440 719.540466,848.713440 754.500000,848.713867 
M770.500000,1087.000000 
	C730.061584,1087.000000 689.623108,1087.000000 649.109619,1087.000000 
	C649.109619,1106.391602 649.109619,1125.135742 649.109619,1144.277954 
	C757.842590,1144.277954 866.240356,1144.277954 974.858765,1144.277954 
	C974.858765,1124.994507 974.858765,1106.149536 974.858765,1087.408691 
	C974.118225,1087.219849 973.802979,1087.068970 973.487671,1087.068848 
	C906.158447,1087.038940 838.829224,1087.019531 770.500000,1087.000000 
z"/>
<path fill="#7064F0" opacity="1.000000" stroke="none" 
	d="
M510.000000,1081.339844 
	C522.125427,1081.340088 533.750916,1081.340088 545.654114,1081.340088 
	C545.654114,1100.973633 545.654114,1120.056885 545.654114,1139.503540 
	C459.988037,1139.503540 374.417786,1139.503540 288.050690,1139.503540 
	C288.050690,1137.793213 288.050720,1136.043335 288.050720,1134.293457 
	C288.050720,1117.627441 288.180176,1100.959595 287.958649,1084.296509 
	C287.904022,1080.185913 289.087982,1077.067139 291.583405,1073.883545 
	C310.594604,1049.630981 329.460449,1025.264404 348.361603,1000.925598 
	C349.164825,999.891296 349.869690,998.780579 351.312256,996.714600 
	C348.859985,996.714600 347.168732,996.714539 345.477478,996.714539 
	C327.978119,996.714478 310.477234,996.589172 292.980560,996.804932 
	C288.753052,996.857056 287.641510,995.495972 287.697418,991.399353 
	C287.913422,975.569580 287.778778,959.735107 287.795868,943.902344 
	C287.797455,942.445679 287.948822,940.989075 288.060547,939.000000 
	C290.091797,939.000000 291.877869,939.000000 293.663940,939.000000 
	C326.329376,939.000000 358.995148,938.937500 391.659851,939.089172 
	C395.232483,939.105713 397.352020,937.950989 399.488983,935.176941 
	C420.225525,908.257385 441.138733,881.473938 461.862549,854.544617 
	C462.935516,853.150330 463.452240,850.542236 462.904694,848.955994 
	C462.524170,847.853638 459.874634,846.953552 458.236847,846.950317 
	C406.072327,846.847717 353.907562,846.865906 301.742859,846.865845 
	C299.764801,846.865845 297.786774,846.865845 295.421112,846.865845 
	C295.421112,827.326660 295.421112,808.125000 295.421112,788.630249 
	C378.125610,788.630249 460.710114,788.630249 543.707520,788.630249 
	C543.850525,790.242981 544.084229,791.664856 544.086243,793.086914 
	C544.111084,810.752930 544.185791,828.419800 543.998657,846.083801 
	C543.974609,848.351562 543.069885,851.008667 541.687683,852.803528 
	C520.852966,879.857605 499.868591,906.796448 478.925385,933.767090 
	C477.812378,935.200439 476.752808,936.675293 475.118958,938.868164 
	C642.091675,938.868164 808.395935,938.868164 974.992554,938.868164 
	C974.992554,958.244873 974.992554,976.973145 974.992554,996.714539 
	C967.471985,996.714539 960.202820,996.714539 952.933655,996.714539 
	C854.770630,996.714539 756.607666,996.714478 658.444641,996.714539 
	C584.117065,996.714539 509.789398,996.744629 435.461975,996.629639 
	C431.565552,996.623596 429.089355,997.782043 426.714050,1000.870605 
	C408.232819,1024.901611 389.541656,1048.770996 371.066895,1072.806763 
	C369.769714,1074.494385 368.862823,1077.320312 369.344513,1079.218262 
	C369.627319,1080.332520 373.013306,1081.247925 375.005981,1081.252930 
	C419.837128,1081.365601 464.668579,1081.339478 510.000000,1081.339844 
z"/>
<path fill="#7064F0" opacity="1.000000" stroke="none" 
	d="
M1678.983398,862.026245 
	C1690.969849,885.347168 1696.884399,909.951721 1699.054077,935.554138 
	C1701.469604,964.056763 1700.874390,992.438782 1695.005005,1020.543640 
	C1688.279175,1052.750488 1674.524292,1081.335815 1650.662720,1104.439453 
	C1630.831665,1123.640503 1606.718140,1134.824097 1579.949585,1140.378296 
	C1546.099365,1147.401978 1512.425049,1146.553589 1479.268188,1136.345093 
	C1430.549438,1121.345459 1399.862793,1088.139038 1384.089966,1040.471069 
	C1374.503418,1011.498718 1372.425049,981.552185 1373.601440,951.213806 
	C1374.575928,926.081360 1378.182861,901.490967 1387.582031,878.055908 
	C1407.074219,829.455383 1442.399536,799.178101 1493.644287,788.094177 
	C1525.892090,781.119202 1558.184204,781.723572 1590.081787,790.396118 
	C1629.944092,801.234192 1659.762085,824.835022 1678.983398,862.026245 
M1592.493164,859.947144 
	C1569.189087,842.855713 1542.670410,840.935425 1515.642700,845.531128 
	C1483.231079,851.042358 1462.418579,871.008362 1453.083862,902.303345 
	C1442.148193,938.964661 1442.483398,976.200500 1449.727661,1013.462097 
	C1453.522583,1032.981323 1461.383789,1050.597290 1476.711060,1064.072266 
	C1494.348267,1079.578125 1515.466309,1084.469849 1538.301514,1084.312256 
	C1555.432617,1084.193970 1571.730347,1080.963501 1586.519165,1071.965942 
	C1606.877808,1059.579834 1617.335938,1040.420654 1623.057129,1018.051697 
	C1627.907837,999.085327 1628.754639,979.782532 1627.969116,960.358215 
	C1627.492188,948.568909 1627.511230,936.674438 1625.849243,925.035461 
	C1622.263428,899.924072 1614.026978,876.840210 1592.493164,859.947144 
z"/>
<path fill="#7064F0" opacity="1.000000" stroke="none" 
	d="
M1070.176147,1043.000000 
	C1070.176270,959.849609 1070.234253,877.199036 1070.040894,794.549072 
	C1070.028442,789.220032 1071.751709,788.232971 1076.548218,788.250854 
	C1117.872803,788.404724 1159.198364,788.315186 1200.523560,788.348694 
	C1223.843994,788.367676 1246.745361,790.794861 1268.106812,801.120728 
	C1299.878052,816.478821 1317.824219,842.322083 1322.769775,876.690491 
	C1326.081909,899.706604 1325.487061,922.847717 1316.429932,944.986816 
	C1303.429688,976.764343 1279.188599,995.190857 1246.734863,1003.866699 
	C1232.655640,1007.630432 1218.248657,1008.858215 1203.717285,1008.863098 
	C1182.727417,1008.870056 1161.737671,1008.864868 1140.078613,1008.864868 
	C1140.078613,1052.444458 1140.078613,1095.807129 1140.078613,1139.515625 
	C1116.533203,1139.515625 1093.656250,1139.515625 1070.176025,1139.515625 
	C1070.176025,1107.379761 1070.176025,1075.439941 1070.176147,1043.000000 
M1234.172241,944.761780 
	C1238.255493,940.666870 1242.885620,936.978455 1246.300171,932.386353 
	C1252.131470,924.544189 1253.772583,915.074829 1254.543335,905.536621 
	C1255.549438,893.087036 1254.514160,880.810608 1248.981689,869.451904 
	C1240.643311,852.331665 1225.372925,845.167908 1207.579956,844.250671 
	C1185.968872,843.136658 1164.266846,843.782104 1142.604126,843.690186 
	C1141.828369,843.686890 1141.051392,843.936951 1140.259033,844.071655 
	C1140.259033,880.756470 1140.259033,917.126038 1140.259033,953.860352 
	C1158.637085,953.860352 1176.610229,953.884338 1194.583252,953.838989 
	C1197.908325,953.830627 1201.233276,953.556091 1204.557129,953.381104 
	C1214.847046,952.839661 1224.593872,950.384583 1234.172241,944.761780 
z"/>
<path fill="#7064F0" opacity="1.000000" stroke="none" 
	d="
M754.000000,848.713623 
	C719.540466,848.713440 685.580994,848.713440 651.296143,848.713440 
	C651.296143,829.346863 651.296143,810.458984 651.296143,791.284790 
	C760.015564,791.284790 868.604797,791.284790 977.597168,791.284790 
	C977.597168,810.103394 977.597168,829.001221 977.597168,848.713867 
	C903.313721,848.713867 828.906860,848.713867 754.000000,848.713623 
z"/>
<path fill="#7064F0" opacity="1.000000" stroke="none" 
	d="
M771.000000,1087.000000 
	C838.829224,1087.019531 906.158447,1087.038940 973.487671,1087.068848 
	C973.802979,1087.068970 974.118225,1087.219849 974.858765,1087.408691 
	C974.858765,1106.149536 974.858765,1124.994507 974.858765,1144.277954 
	C866.240356,1144.277954 757.842590,1144.277954 649.109619,1144.277954 
	C649.109619,1125.135742 649.109619,1106.391602 649.109619,1087.000000 
	C689.623108,1087.000000 730.061584,1087.000000 771.000000,1087.000000 
z"/>
<path fill="none" opacity="1.000000" stroke="none" 
	d="
M1592.771973,860.172729 
	C1614.026978,876.840210 1622.263428,899.924072 1625.849243,925.035461 
	C1627.511230,936.674438 1627.492188,948.568909 1627.969116,960.358215 
	C1628.754639,979.782532 1627.907837,999.085327 1623.057129,1018.051697 
	C1617.335938,1040.420654 1606.877808,1059.579834 1586.519165,1071.965942 
	C1571.730347,1080.963501 1555.432617,1084.193970 1538.301514,1084.312256 
	C1515.466309,1084.469849 1494.348267,1079.578125 1476.711060,1064.072266 
	C1461.383789,1050.597290 1453.522583,1032.981323 1449.727661,1013.462097 
	C1442.483398,976.200500 1442.148193,938.964661 1453.083862,902.303345 
	C1462.418579,871.008362 1483.231079,851.042358 1515.642700,845.531128 
	C1542.670410,840.935425 1569.189087,842.855713 1592.771973,860.172729 
z"/>
<path fill="none" opacity="1.000000" stroke="none" 
	d="
M1233.855713,944.941406 
	C1224.593872,950.384583 1214.847046,952.839661 1204.557129,953.381104 
	C1201.233276,953.556091 1197.908325,953.830627 1194.583252,953.838989 
	C1176.610229,953.884338 1158.637085,953.860352 1140.259033,953.860352 
	C1140.259033,917.126038 1140.259033,880.756470 1140.259033,844.071655 
	C1141.051392,843.936951 1141.828369,843.686890 1142.604126,843.690186 
	C1164.266846,843.782104 1185.968872,843.136658 1207.579956,844.250671 
	C1225.372925,845.167908 1240.643311,852.331665 1248.981689,869.451904 
	C1254.514160,880.810608 1255.549438,893.087036 1254.543335,905.536621 
	C1253.772583,915.074829 1252.131470,924.544189 1246.300171,932.386353 
	C1242.885620,936.978455 1238.255493,940.666870 1233.855713,944.941406 
z"/>
</svg>