<svg width="134" height="40" viewBox="0 0 134 40" fill="none" xmlns="http://www.w3.org/2000/svg">
<g clip-path="url(#clip0_601_2431)">
<path d="M44.28 28V25.86L51.5 15.5H44.7V13.1H54.96V15.24L47.76 25.6H55.16V28H44.28ZM61.8058 28.24C60.6858 28.24 59.7058 27.9867 58.8658 27.48C58.0258 26.9733 57.3724 26.2867 56.9058 25.42C56.4391 24.5533 56.2058 23.5933 56.2058 22.54C56.2058 21.4467 56.4391 20.48 56.9058 19.64C57.3858 18.7867 58.0324 18.1133 58.8458 17.62C59.6724 17.1267 60.5924 16.88 61.6058 16.88C62.4591 16.88 63.2058 17.02 63.8458 17.3C64.4991 17.58 65.0524 17.9667 65.5058 18.46C65.9591 18.9533 66.3058 19.52 66.5458 20.16C66.7858 20.7867 66.9058 21.4667 66.9058 22.2C66.9058 22.3867 66.8924 22.58 66.8658 22.78C66.8524 22.98 66.8191 23.1533 66.7658 23.3H58.3658V21.3H65.2858L64.0458 22.24C64.1658 21.6267 64.1324 21.08 63.9458 20.6C63.7724 20.12 63.4791 19.74 63.0658 19.46C62.6658 19.18 62.1791 19.04 61.6058 19.04C61.0591 19.04 60.5724 19.18 60.1458 19.46C59.7191 19.7267 59.3924 20.1267 59.1658 20.66C58.9524 21.18 58.8724 21.8133 58.9258 22.56C58.8724 23.2267 58.9591 23.82 59.1858 24.34C59.4258 24.8467 59.7724 25.24 60.2258 25.52C60.6924 25.8 61.2258 25.94 61.8258 25.94C62.4258 25.94 62.9324 25.8133 63.3458 25.56C63.7724 25.3067 64.1058 24.9667 64.3458 24.54L66.4658 25.58C66.2524 26.1 65.9191 26.56 65.4658 26.96C65.0124 27.36 64.4724 27.6733 63.8458 27.9C63.2324 28.1267 62.5524 28.24 61.8058 28.24ZM68.8919 32V17.12H71.3519V19.28L71.1119 18.74C71.4852 18.1533 71.9919 17.7 72.6319 17.38C73.2719 17.0467 74.0119 16.88 74.8519 16.88C75.8785 16.88 76.8052 17.1333 77.6319 17.64C78.4585 18.1467 79.1119 18.8267 79.5919 19.68C80.0852 20.5333 80.3319 21.4933 80.3319 22.56C80.3319 23.6133 80.0919 24.5733 79.6119 25.44C79.1319 26.3067 78.4785 26.9933 77.6519 27.5C76.8252 27.9933 75.8852 28.24 74.8319 28.24C74.0452 28.24 73.3185 28.0867 72.6519 27.78C71.9985 27.46 71.4785 27.0067 71.0919 26.42L71.5119 25.9V32H68.8919ZM74.5319 25.84C75.1319 25.84 75.6652 25.7 76.1319 25.42C76.5985 25.14 76.9585 24.7533 77.2119 24.26C77.4785 23.7667 77.6119 23.2 77.6119 22.56C77.6119 21.92 77.4785 21.36 77.2119 20.88C76.9585 20.3867 76.5985 20 76.1319 19.72C75.6652 19.4267 75.1319 19.28 74.5319 19.28C73.9585 19.28 73.4385 19.42 72.9719 19.7C72.5185 19.98 72.1585 20.3733 71.8919 20.88C71.6385 21.3733 71.5119 21.9333 71.5119 22.56C71.5119 23.2 71.6385 23.7667 71.8919 24.26C72.1585 24.7533 72.5185 25.14 72.9719 25.42C73.4385 25.7 73.9585 25.84 74.5319 25.84ZM87.6494 28.24C86.5827 28.24 85.6094 27.9933 84.7294 27.5C83.8627 27.0067 83.1694 26.3333 82.6494 25.48C82.1427 24.6267 81.8894 23.6533 81.8894 22.56C81.8894 21.4667 82.1427 20.4933 82.6494 19.64C83.1694 18.7867 83.8627 18.1133 84.7294 17.62C85.596 17.1267 86.5694 16.88 87.6494 16.88C88.716 16.88 89.6827 17.1267 90.5494 17.62C91.416 18.1133 92.1027 18.7867 92.6094 19.64C93.1294 20.48 93.3894 21.4533 93.3894 22.56C93.3894 23.6533 93.1294 24.6267 92.6094 25.48C92.0894 26.3333 91.396 27.0067 90.5294 27.5C89.6627 27.9933 88.7027 28.24 87.6494 28.24ZM87.6494 25.84C88.236 25.84 88.7494 25.7 89.1894 25.42C89.6427 25.14 89.996 24.7533 90.2494 24.26C90.516 23.7533 90.6494 23.1867 90.6494 22.56C90.6494 21.92 90.516 21.36 90.2494 20.88C89.996 20.3867 89.6427 20 89.1894 19.72C88.7494 19.4267 88.236 19.28 87.6494 19.28C87.0494 19.28 86.5227 19.4267 86.0694 19.72C85.616 20 85.256 20.3867 84.9894 20.88C84.736 21.36 84.6094 21.92 84.6094 22.56C84.6094 23.1867 84.736 23.7533 84.9894 24.26C85.256 24.7533 85.616 25.14 86.0694 25.42C86.5227 25.7 87.0494 25.84 87.6494 25.84Z" fill="#100A55"/>
<g clip-path="url(#clip1_601_2431)">
<path d="M33.3333 15.6133L26.2226 10.0826C25.5986 9.59719 24.8306 9.33362 24.04 9.33362C23.2494 9.33362 22.4813 9.59719 21.8573 10.0826L14.7453 15.6133C14.3179 15.9457 13.9721 16.3713 13.7343 16.8578C13.4965 17.3442 13.373 17.8785 13.3733 18.42V28.02C13.3733 28.7272 13.6542 29.4055 14.1543 29.9056C14.6544 30.4057 15.3327 30.6866 16.04 30.6866H32.04C32.7472 30.6866 33.4255 30.4057 33.9256 29.9056C34.4257 29.4055 34.7066 28.7272 34.7066 28.02V18.42C34.7066 17.3226 34.2 16.2866 33.3333 15.6133Z" fill="#7065F0" stroke="#7065F0" stroke-width="3" stroke-linecap="round" stroke-linejoin="round"/>
<path d="M29.3334 24C26.3867 25.7773 21.6107 25.7773 18.6667 24" stroke="#F9FAFB" stroke-width="3" stroke-linecap="round" stroke-linejoin="round"/>
</g>
</g>
<defs>
<clipPath id="clip0_601_2431">
<rect width="134" height="40" fill="white"/>
</clipPath>
<clipPath id="clip1_601_2431">
<rect width="32" height="32" fill="white" transform="translate(8 4)"/>
</clipPath>
</defs>
</svg>
